
        <svg xmlns="http://www.w3.org/2000/svg" xmlns:xlink="http://www.w3.org/1999/xlink" version="1.1" width="3188.574879836363" 
        height="1037.1618390999954" viewBox="0 0 3188.574879836363 1037.1618390999954">
			
			<g transform="scale(9.42874399181814) translate(10, 10)">
				<defs id="SvgjsDefs1327"><linearGradient id="SvgjsLinearGradient1336"><stop id="SvgjsStop1337" stop-color="#006838" offset="0"></stop><stop id="SvgjsStop1338" stop-color="#96cf24" offset="1"></stop></linearGradient><linearGradient id="SvgjsLinearGradient1339"><stop id="SvgjsStop1340" stop-color="#006838" offset="0"></stop><stop id="SvgjsStop1341" stop-color="#96cf24" offset="1"></stop></linearGradient></defs><g id="SvgjsG1328" featureKey="5TMTKC-0" transform="matrix(1.125,0,0,1.125,-11.25,-11.25)" fill="url(#SvgjsLinearGradient1336)"><path xmlns="http://www.w3.org/2000/svg" d="M31.6611328,66.5234375c0.3935547,0.4619141,0.9697266,0.7275391,1.5791016,0.7275391h33.5195312  c0.6132812,0,1.1914062-0.2675781,1.5849609-0.734375c0.3916016-0.4628906,0.5576172-1.0703125,0.4570312-1.6660156  l-2.2158203-13.0668335v-19.237854c0-1.6298828-1.3349609-2.9550781-2.9755859-2.9550781H36.2841797  c-1.640625,0-2.9755859,1.3251953-2.9755859,2.9550781v19.2436523l-2.1123047,13.0766602  C31.1005859,65.4609375,31.2705078,66.0644531,31.6611328,66.5234375z M35.1600952,52.8701172h6.0682983l-0.4790039,4.8583984  h-6.3740845L35.1600952,52.8701172z M43.237854,52.8701172h5.8197632v4.8583984h-6.2987671L43.237854,52.8701172z   M49.0576172,59.7285156v5.4874878l-7.0355835-0.013916l0.5396118-5.4735718H49.0576172z M51.0576172,59.7285156h6.4949951  l0.5427856,5.5053101l-7.0377808-0.013916V59.7285156z M51.0576172,57.7285156v-4.8583984h5.8187866l0.4790039,4.8583984H51.0576172  z M58.8858643,52.8701172h5.8499146l0.7942505,4.8583984h-6.1651611L58.8858643,52.8701172z M64.5859375,50.8701172H35.3085938  V36.8632812h29.2773438V50.8701172z M33.1708984,65.1845703l0.8813477-5.4560547h6.499939l-0.5393066,5.4696045  L33.1708984,65.1845703z M60.1052856,65.237793l-0.5432129-5.5092773h6.2949219l0.902771,5.5224609L60.1052856,65.237793z   M36.2841797,31.5908203h27.3261719c0.5380859,0,0.9755859,0.4287109,0.9755859,0.9550781v2.3173828H35.3085938v-2.3173828  C35.3085938,32.0195312,35.7460938,31.5908203,36.2841797,31.5908203z"></path><path xmlns="http://www.w3.org/2000/svg" d="M56.3662109,16.3369141C56.3662109,12.8427734,53.5107422,10,50,10s-6.3662109,2.8427734-6.3662109,6.3369141  c0,3.4931641,2.8554688,6.3359375,6.3662109,6.3359375S56.3662109,19.8300781,56.3662109,16.3369141z M45.6337891,16.3369141  C45.6337891,13.9453125,47.5927734,12,50,12s4.3662109,1.9453125,4.3662109,4.3369141  c0,2.390625-1.9589844,4.3359375-4.3662109,4.3359375S45.6337891,18.7275391,45.6337891,16.3369141z"></path><path xmlns="http://www.w3.org/2000/svg" d="M80.1552734,26.2089844c-0.0048828-1.6962891-0.6689453-3.2919922-1.8710938-4.4931641  c-1.2011719-1.2021484-2.796875-1.8662109-4.4931641-1.8710938c-0.0058594,0-0.0117188,0-0.0185547,0  c-1.6904297,0-3.2773438,0.65625-4.4707031,1.8496094c-1.1972656,1.1972656-1.8544922,2.7919922-1.8496094,4.4892578  c0.0048828,1.6962891,0.6689453,3.2919922,1.8710938,4.4931641c1.2011719,1.2021484,2.796875,1.8662109,4.4931641,1.8710938  c0.0058594,0,0.0117188,0,0.0185547,0c1.6904297,0,3.2773438-0.65625,4.4707031-1.8496094  C79.5029297,29.5009766,80.1601562,27.90625,80.1552734,26.2089844z M76.8916016,29.2841797  c-1.6904297,1.6904297-4.4501953,1.6826172-6.1542969-0.0214844c-1.7021484-1.703125-1.7119141-4.4638672-0.0214844-6.1542969  c0.8417969-0.8417969,1.9482422-1.2617188,3.0576172-1.2617188c1.1191406,0,2.2412109,0.4277344,3.0966797,1.2832031  C78.5722656,24.8330078,78.5820312,27.59375,76.8916016,29.2841797z"></path><path xmlns="http://www.w3.org/2000/svg" d="M83.6630859,43.6337891c-3.4931641,0-6.3359375,2.8554688-6.3359375,6.3662109s2.8427734,6.3662109,6.3359375,6.3662109  C87.1572266,56.3662109,90,53.5107422,90,50S87.1572266,43.6337891,83.6630859,43.6337891z M83.6630859,54.3662109  c-2.390625,0-4.3359375-1.9589844-4.3359375-4.3662109s1.9453125-4.3662109,4.3359375-4.3662109  C86.0546875,45.6337891,88,47.5927734,88,50S86.0546875,54.3662109,83.6630859,54.3662109z"></path><path xmlns="http://www.w3.org/2000/svg" d="M73.8349609,67.4521484c-0.0068359,0-0.0126953,0-0.0185547,0  c-1.6962891,0.0048828-3.2919922,0.6689453-4.4931641,1.8710938c-1.2021484,1.2011719-1.8662109,2.796875-1.8710938,4.4931641  c-0.0048828,1.6972656,0.6523438,3.2919922,1.8496094,4.4892578c1.1933594,1.1933594,2.7802734,1.8496094,4.4707031,1.8496094  c0.0068359,0,0.0126953,0,0.0185547,0c1.6962891-0.0048828,3.2919922-0.6689453,4.4931641-1.8710938  c1.2021484-1.2011719,1.8662109-2.796875,1.8710938-4.4931641c0.0048828-1.6972656-0.6523438-3.2919922-1.8496094-4.4892578  C77.1123047,68.1083984,75.5253906,67.4521484,73.8349609,67.4521484z M76.8701172,76.8701172  c-1.7041016,1.703125-4.4638672,1.7128906-6.1542969,0.0214844c-1.6904297-1.6904297-1.6806641-4.4511719,0.0214844-6.1542969  c0.8554688-0.8554688,1.9775391-1.2832031,3.0966797-1.2832031c1.109375,0,2.2158203,0.4199219,3.0576172,1.2617188  C78.5820312,72.40625,78.5722656,75.1669922,76.8701172,76.8701172z"></path><path xmlns="http://www.w3.org/2000/svg" d="M43.6337891,83.6630859C43.6337891,87.1572266,46.4892578,90,50,90s6.3662109-2.8427734,6.3662109-6.3369141  c0-3.4931641-2.8554688-6.3359375-6.3662109-6.3359375S43.6337891,80.1699219,43.6337891,83.6630859z M54.3662109,83.6630859  C54.3662109,86.0546875,52.4072266,88,50,88s-4.3662109-1.9453125-4.3662109-4.3369141  c0-2.390625,1.9589844-4.3359375,4.3662109-4.3359375S54.3662109,81.2724609,54.3662109,83.6630859z"></path><path xmlns="http://www.w3.org/2000/svg" d="M19.8447266,73.7910156c0.0048828,1.6962891,0.6689453,3.2919922,1.8710938,4.4931641  c1.2011719,1.2021484,2.796875,1.8662109,4.4931641,1.8710938c0.0058594,0,0.0117188,0,0.0185547,0  c1.6904297,0,3.2773438-0.65625,4.4707031-1.8496094c1.1972656-1.1972656,1.8544922-2.7919922,1.8496094-4.4892578  c-0.0048828-1.6962891-0.6689453-3.2919922-1.8710938-4.4931641c-1.2011719-1.2021484-2.796875-1.8662109-4.4931641-1.8710938  c-0.0058594,0-0.0117188,0-0.0185547,0c-1.6904297,0-3.2773438,0.65625-4.4707031,1.8496094  C20.4970703,70.4990234,19.8398438,72.09375,19.8447266,73.7910156z M23.1083984,70.7158203  c0.8417969-0.8417969,1.9482422-1.2617188,3.0576172-1.2617188c1.1191406,0,2.2412109,0.4277344,3.0966797,1.2832031  c1.7021484,1.703125,1.7119141,4.4638672,0.0214844,6.1542969c-1.6914062,1.6914062-4.4511719,1.6816406-6.1542969-0.0214844  C21.4277344,75.1669922,21.4179688,72.40625,23.1083984,70.7158203z"></path><path xmlns="http://www.w3.org/2000/svg" d="M16.3369141,56.3662109c3.4931641,0,6.3359375-2.8554688,6.3359375-6.3662109s-2.8427734-6.3662109-6.3359375-6.3662109  C12.8427734,43.6337891,10,46.4892578,10,50S12.8427734,56.3662109,16.3369141,56.3662109z M16.3369141,45.6337891  c2.390625,0,4.3359375,1.9589844,4.3359375,4.3662109s-1.9453125,4.3662109-4.3359375,4.3662109  C13.9453125,54.3662109,12,52.4072266,12,50S13.9453125,45.6337891,16.3369141,45.6337891z"></path><path xmlns="http://www.w3.org/2000/svg" d="M26.1650391,32.5478516c0.0068359,0,0.0126953,0,0.0185547,0c1.6962891-0.0048828,3.2919922-0.6689453,4.4931641-1.8710938  c1.2021484-1.2011719,1.8662109-2.796875,1.8710938-4.4931641c0.0048828-1.6972656-0.6523438-3.2919922-1.8496094-4.4892578  c-1.1933594-1.1933594-2.7802734-1.8496094-4.4707031-1.8496094c-0.0068359,0-0.0126953,0-0.0185547,0  c-1.6962891,0.0048828-3.2919922,0.6689453-4.4931641,1.8710938c-1.2021484,1.2011719-1.8662109,2.796875-1.8710938,4.4931641  c-0.0048828,1.6972656,0.6523438,3.2919922,1.8496094,4.4892578C22.8876953,31.8916016,24.4746094,32.5478516,26.1650391,32.5478516  z M23.1298828,23.1298828c0.8554688-0.8554688,1.9775391-1.2832031,3.0966797-1.2832031  c1.109375,0,2.2158203,0.4199219,3.0576172,1.2617188c1.6904297,1.6904297,1.6806641,4.4511719-0.0214844,6.1542969  c-1.703125,1.7041016-4.4628906,1.7119141-6.1542969,0.0214844C21.4179688,27.59375,21.4277344,24.8330078,23.1298828,23.1298828z"></path><path xmlns="http://www.w3.org/2000/svg" d="M33.625,21.5810547c0.1650391,0,0.3320312-0.0410156,0.4863281-0.1269531  c2.078125-1.1582031,4.2832031-2.0888672,6.5556641-2.765625c0.5292969-0.1572266,0.8310547-0.7138672,0.6728516-1.2431641  c-0.15625-0.5292969-0.7128906-0.8330078-1.2431641-0.6728516c-2.4121094,0.7177734-4.7539062,1.7050781-6.9599609,2.9355469  c-0.4824219,0.2685547-0.6552734,0.8779297-0.3857422,1.3603516C32.9335938,21.3964844,33.2744141,21.5810547,33.625,21.5810547z"></path><path xmlns="http://www.w3.org/2000/svg" d="M65.453125,21.2246094c0.1513672,0.0810547,0.3134766,0.1201172,0.4746094,0.1201172  c0.3554688,0,0.6992188-0.1894531,0.8808594-0.5244141c0.2626953-0.4853516,0.0820312-1.0917969-0.4042969-1.3554688  c-2.2158203-1.1992188-4.5703125-2.15625-6.9980469-2.8447266c-0.5283203-0.1552734-1.0830078,0.15625-1.234375,0.6894531  c-0.1503906,0.53125,0.1582031,1.0839844,0.6894531,1.234375C61.1474609,19.1923828,63.3652344,20.0947266,65.453125,21.2246094z"></path><path xmlns="http://www.w3.org/2000/svg" d="M81.1865234,40.5419922c0.1289062,0.4345703,0.5263672,0.7148438,0.9580078,0.7148438  c0.09375,0,0.1904297-0.0136719,0.2851562-0.0419922c0.5292969-0.1572266,0.8310547-0.7138672,0.6728516-1.2431641  c-0.7177734-2.4121094-1.7050781-4.7539062-2.9355469-6.9599609c-0.2685547-0.4833984-0.8789062-0.6552734-1.3603516-0.3857422  c-0.4824219,0.2685547-0.6552734,0.8779297-0.3857422,1.3603516C79.5791016,36.0644531,80.5097656,38.2695312,81.1865234,40.5419922  z"></path><path xmlns="http://www.w3.org/2000/svg" d="M82.5654297,58.046875c-0.5273438-0.1542969-1.0839844,0.1572266-1.234375,0.6894531  c-0.6484375,2.2861328-1.5507812,4.5039062-2.6806641,6.5917969c-0.2626953,0.4853516-0.0820312,1.0917969,0.4042969,1.3554688  c0.1513672,0.0810547,0.3134766,0.1201172,0.4746094,0.1201172c0.3554688,0,0.6992188-0.1894531,0.8808594-0.5244141  c1.1992188-2.2158203,2.15625-4.5703125,2.8447266-6.9980469C83.4052734,58.75,83.0966797,58.1972656,82.5654297,58.046875z"></path><path xmlns="http://www.w3.org/2000/svg" d="M65.8886719,78.2958984c-2.078125,1.1582031-4.2832031,2.0888672-6.5556641,2.765625  c-0.5292969,0.1572266-0.8310547,0.7138672-0.6728516,1.2431641c0.1289062,0.4345703,0.5263672,0.7148438,0.9580078,0.7148438  c0.09375,0,0.1904297-0.0136719,0.2851562-0.0419922c2.4121094-0.7177734,4.7539062-1.7050781,6.9599609-2.9355469  c0.4824219-0.2685547,0.6552734-0.8779297,0.3857422-1.3603516C66.9804688,78.1992188,66.3701172,78.0273438,65.8886719,78.2958984z  "></path><path xmlns="http://www.w3.org/2000/svg" d="M34.546875,78.5253906c-0.4853516-0.2607422-1.0917969-0.0830078-1.3554688,0.4042969  c-0.2626953,0.4853516-0.0820312,1.0917969,0.4042969,1.3554688c2.2158203,1.1992188,4.5703125,2.15625,6.9980469,2.8447266  c0.0908203,0.0263672,0.1826172,0.0380859,0.2734375,0.0380859c0.4355469,0,0.8359375-0.2871094,0.9609375-0.7275391  c0.1503906-0.53125-0.1582031-1.0839844-0.6894531-1.234375C38.8525391,80.5576172,36.6347656,79.6552734,34.546875,78.5253906z"></path><path xmlns="http://www.w3.org/2000/svg" d="M18.8134766,59.2080078c-0.15625-0.5292969-0.7128906-0.8320312-1.2431641-0.6728516  c-0.5292969,0.1572266-0.8310547,0.7138672-0.6728516,1.2431641c0.7177734,2.4121094,1.7050781,4.7539062,2.9355469,6.9599609  c0.1826172,0.328125,0.5234375,0.5126953,0.8740234,0.5126953c0.1650391,0,0.3320312-0.0410156,0.4863281-0.1269531  c0.4824219-0.2685547,0.6552734-0.8779297,0.3857422-1.3603516C20.4208984,63.6855469,19.4902344,61.4804688,18.8134766,59.2080078z  "></path><path xmlns="http://www.w3.org/2000/svg" d="M19.5898438,33.4707031c-1.1992188,2.2158203-2.15625,4.5703125-2.8447266,6.9980469  C16.5947266,41,16.9033203,41.5527344,17.4345703,41.703125c0.0908203,0.0263672,0.1826172,0.0380859,0.2734375,0.0380859  c0.4355469,0,0.8359375-0.2871094,0.9609375-0.7275391c0.6484375-2.2861328,1.5507812-4.5039062,2.6806641-6.5917969  c0.2626953-0.4853516,0.0820312-1.0917969-0.4042969-1.3554688C20.4589844,32.8076172,19.8535156,32.9833984,19.5898438,33.4707031z  "></path></g><g id="SvgjsG1329" featureKey="sloganFeature-0" transform="matrix(1.1749317505201775,0,0,1.1749317505201775,110.09392364866652,53.2898769159421)" fill="url(#SvgjsLinearGradient1339)"><path d="M6.82 16.22 c-0.01334 0.66666 -0.076582 1.25 -0.18992 1.75 s-0.30668 0.91334 -0.58002 1.24 s-0.63334 0.57 -1.08 0.73 s-1.01 0.24 -1.69 0.24 c-1.1733 0 -2.0266 -0.32666 -2.56 -0.98 s-0.8 -1.6467 -0.8 -2.98 l0 -7.4 c0 -1.3333 0.27 -2.3266 0.81 -2.98 s1.4633 -0.98 2.77 -0.98 c1.1733 0 2.0134 0.32666 2.52 0.98 s0.77332 1.6467 0.79998 2.98 l0.02 0.92 l-0.92 0 l-0.02 -1.16 c0 -0.33334 -0.03334 -0.67 -0.1 -1.01 s-0.18666 -0.65 -0.36 -0.93 s-0.41668 -0.50666 -0.73002 -0.68 s-0.73 -0.26 -1.25 -0.26 c-0.50666 0 -0.93 0.08 -1.27 0.24 s-0.61 0.38 -0.81 0.66 s-0.33666 0.61 -0.41 0.99 s-0.11 0.79 -0.11 1.23 l0.04 7.5 c0 0.92 0.17 1.64 0.51 2.16 s0.96334 0.78 1.87 0.78 c0.52 0 0.95 -0.07 1.29 -0.21 s0.60666 -0.33666 0.8 -0.59 s0.33 -0.56 0.41 -0.92 s0.12 -0.75334 0.12 -1.18 l0.02 -1.3 l0.92 0 z M15.5 20 l-0.02 -6.98 l-5.48 0 l0.02 6.98 l-1.16 0 l0 -15 l1.16 0 l-0.02 6.96 l5.48 0 l0.02 -6.96 l1.18 0 l0 15 l-1.18 0 z M25.779999999999998 20 l-1.1 -4.42 l-4.88 0 l-1.1 4.42 l-1 0 l4.14 -15 l0.86 0 l4.12 15 l-1.04 0 z M22.299999999999997 5.9399999999999995 l-2.26 8.68 l4.38 0 z M30.240000000000002 6.1 l0 13.9 l-1.16 0 l0 -13.9 l-3.26 0 l0 -1.1 l7.68 0 l0 1.1 l-3.26 0 z M38.059999999999995 20 l0 -15 l1.28 0 l0 15 l-1.28 0 z M48.17999999999999 20 l-5.8 -12.88 l0 12.88 l-1.1 0 l0 -15 l1.18 0 l5.8 12.3 l0.14 -12.3 l1.08 0 l0 15 l-1.3 0 z M62.739999999999995 20 l-1.1 -4.42 l-4.88 0 l-1.1 4.42 l-1 0 l4.14 -15 l0.86 0 l4.12 15 l-1.04 0 z M59.25999999999999 5.9399999999999995 l-2.26 8.68 l4.38 0 z M72.72 20.18 c-0.65334 0 -1.2335 -0.086738 -1.7401 -0.26008 s-0.93332 -0.45 -1.28 -0.83 s-0.60332 -0.87666 -0.76998 -1.49 s-0.23666 -1.3533 -0.21 -2.22 l1.2 0 c0 0.42666 0.02 0.87 0.06 1.33 s0.14666 0.88 0.32 1.26 s0.43668 0.69 0.79002 0.93 s0.84334 0.36 1.47 0.36 c0.53334 0 0.98668 -0.08 1.36 -0.24 s0.67668 -0.37334 0.91002 -0.64 s0.39668 -0.58 0.49002 -0.94 s0.14 -0.73334 0.14 -1.12 c0 -0.45334 -0.08334 -0.85 -0.25 -1.19 s-0.38666 -0.64334 -0.66 -0.91 s-0.59334 -0.50332 -0.96 -0.70998 s-0.75 -0.39 -1.15 -0.55 c-0.64 -0.25334 -1.2 -0.50334 -1.68 -0.75 s-0.87334 -0.52332 -1.18 -0.82998 s-0.53666 -0.66332 -0.69 -1.07 s-0.23 -0.90332 -0.23 -1.49 c0 -1.3333 0.35 -2.3266 1.05 -2.98 s1.7033 -0.98 3.01 -0.98 c1.1333 0 2.03 0.33 2.69 0.99 s0.99 1.65 0.99 2.97 l0 1.1 l-1.12 0 l0 -1.2 c0 -0.41334 -0.05 -0.79668 -0.15 -1.15 s-0.25666 -0.66334 -0.47 -0.93 s-0.48334 -0.47666 -0.81 -0.63 s-0.71666 -0.23 -1.17 -0.23 c-1.0667 0 -1.83 0.28 -2.29 0.84 s-0.67 1.3133 -0.63 2.26 c0.01334 0.41334 0.09 0.76668 0.23 1.06 s0.32666 0.55 0.56 0.77 s0.51334 0.41666 0.84 0.59 s0.69 0.34668 1.09 0.52002 c0.46666 0.2 0.93 0.41334 1.39 0.64 s0.89 0.50666 1.29 0.84 c0.4 0.34666 0.73 0.75 0.99 1.21 s0.39 1.03 0.39 1.71 c0 1.32 -0.33666 2.31 -1.01 2.97 s-1.61 0.99 -2.81 0.99 z M84.98000000000002 20 l-5.8 -12.88 l0 12.88 l-1.1 0 l0 -15 l1.18 0 l5.8 12.3 l0.14 -12.3 l1.08 0 l0 15 l-1.3 0 z M95.66000000000001 20 l-1.1 -4.42 l-4.88 0 l-1.1 4.42 l-1 0 l4.14 -15 l0.86 0 l4.12 15 l-1.04 0 z M92.18 5.9399999999999995 l-2.26 8.68 l4.38 0 z M101.12 14.36 l-2.16 0 l0 5.64 l-1.16 0 l0 -15 l3.62 0 c1.32 0 2.3566 0.40334 3.11 1.21 s1.13 1.9767 1.13 3.51 c0 0.68 -0.11 1.3033 -0.33 1.87 s-0.53 1.0567 -0.93 1.47 s-0.87666 0.73334 -1.43 0.96 s-1.17 0.34 -1.85 0.34 z M101.02000000000001 6.02 l-2.06 0.000019531 l0 7.24 l1.86 0 c0.68 0 1.2533 -0.09666 1.72 -0.29 s0.84332 -0.45334 1.13 -0.78 s0.49332 -0.70666 0.61998 -1.14 s0.19 -0.89 0.19 -1.37 c0 -0.49334 -0.04666 -0.96334 -0.14 -1.41 s-0.26668 -0.83666 -0.52002 -1.17 s-0.60668 -0.59668 -1.06 -0.79002 s-1.0333 -0.29 -1.74 -0.29 z M108.32000000000001 16.66 l-1.18 0 l-0.14 -11.66 l1.46 0 z M107.00000000000001 20 l0 -1.18 l1.46 0 l0 1.18 l-1.46 0 z"></path></g><g id="SvgjsG1330" featureKey="nameLeftFeature-0" transform="matrix(2.4861879239010025,0,0,2.4861879239010025,105.027624152198,-0.0773490487625299)" fill="#111111"><path d="M2 10.26 c0 -3 1.8 -5 4.5 -5 s4.5 2 4.5 5 l-1 0 c0 -2.4 -1.4 -4.02 -3.5 -4.02 s-3.5 1.62 -3.5 4.02 l0 4.5 c0 2.4 1.4 4 3.5 4 c0.96 0 1.74 -0.36 2.34 -0.96 l0.76 0.74 c-0.8 0.76 -1.84 1.2 -3.1 1.2 c-2.7 0 -4.5 -1.98 -4.5 -4.98 l0 -4.5 z M6.5 7.74 c-0.5 0 -0.9 0.16 -1.26 0.46 l-0.74 -0.7 c0.56 -0.5 1.2 -0.74 2 -0.74 c1.8 0 3 1.4 3 3.5 l-1 0 c0 -1.5 -0.8 -2.52 -2 -2.52 z M6.5 17.259999999999998 c1.2 0 2 -1 2 -2.5 l1 0 c0 2.1 -1.2 3.48 -3 3.48 s-3 -1.38 -3 -3.48 l0 -4.5 c0 -0.96 0.24 -1.76 0.7 -2.36 l0.7 0.7 c-0.26 0.46 -0.4 1 -0.4 1.66 l0 4.5 c0 1.5 0.8 2.5 2 2.5 z M11 14.76 c0 1.38 -0.4 2.54 -1.06 3.4 l-0.74 -0.7 c0.5 -0.72 0.8 -1.62 0.8 -2.7 l1 0 z M16.5 19.5 l-1 0 l0 -14 l1 0 l0 8 l4.64 0 l1 1 l-5.64 0 l0 5 z M17 5.5 l1 0 l0 7.5 l-1 0 l0 -7.5 z M24 19.5 l-1 0 l0 -3.5 l-4.6 0 l-1.06 -1 l5.66 0 l0 -9.5 l1 0 l0 14 z M22.5 5.5 l0 8.6 l-1 -0.96 l0 -7.64 l1 0 z M17 19.5 l0 -4.14 l1 1 l0 3.14 l-1 0 z M22.5 19.5 l-1 0 l0 -3 l1 0 l0 3 z M27.44 19.5 l4.66 -14 l1.04 0 l-3.04 9.26 l3.44 0 l0.36 1 l-4.14 0 l-1.26 3.74 l-1.06 0 z M37.26 19.5 l-3.6 -10.8 l-1.86 5.56 l-1.06 0 l2.96 -8.76 l4.6 14 l-1.04 0 z M35.64 19.5 l-0.74 -2.24 l-3.76 0 l-0.7 -1 l4.16 0 l-1.46 -4.46 l0.52 -1.54 l3.08 9.24 l-1.1 0 z M30.06 19.5 l-1.06 0 l1.06 -3 l0.64 1 z"></path></g><g id="SvgjsG1331" featureKey="nameRightFeature-0" transform="matrix(2.4,0,0,2.4,209.6,1)" fill="#111111"><path d="M4.5 20 l0 -11.5 l-3.5 0 l0 -3.5 l10.5 0 l0 3.5 l-3.5 0 l0 11.5 l-3.5 0 z M5 19.5 l1 0 l0 -13 l5 0 l0 -1 l-9.5 0 l0 1 l3.5 0 l0 13 z M4.5 7 l-3 0 l0 1 l3 0 l0 -1 z M11 7 l-4.14 0 l0.98 1 l3.16 0 l0 -1 z M7.5 8.4 l-1 -1.04 l0 12.14 l1 0 l0 -11.1 z M18 5 l0 15 l-3.5 0 l0 -15 l3.5 0 z M15 19.5 l1 0 l0 -14 l-1 0 l0 14 z M16.5 19.5 l1 0 l0 -14 l-1 0 l0 14 z M25.5 14.5 l0 5.5 l-3.5 0 l0 -15 l8.5 0 l0 3.5 l-5 0 l0 2.5 l4 0 l0 3.5 l-4 0 z M22.5 5.5 l0 14 l1 0 l0 -7 l5.5 0 l0 -1 l-5.5 0 l0 -5 l6.5 0 l0 -1 l-7.5 0 z M30 7 l-5.66 0 l1.06 1 l4.6 0 l0 -1 z M24 11 l1 0 l0 -2.66 l-1 -0.98 l0 3.64 z M29 13 l-4.66 0 l1.06 1 l3.6 0 l0 -1 z M25 19.5 l0 -5.16 l-1 -0.98 l0 6.14 l1 0 z M32.76 5 l3.98 0 l2.26 3.94 l2.24 -3.94 l4 0 l-4.6 8.1 l0 6.9 l-3.5 0 l0 -7.24 z M34.74 5.5 l-1.14 0 l4.04 7.16 l0 6.84 l1 0 l0 -6.84 l4.02 -7.16 l-1.16 0 l-3.4 5.96 z M35.34 5.5 l2.76 4.94 l0.6 -1.04 l-2.2 -3.9 l-1.16 0 z M39.14 19.5 l1 0 l0 -6.5 l4.26 -7.5 l-1.14 0 l-4.12 7.26 l0 6.74 z"></path></g>
			</g>
		</svg>
	